<svg width="122" height="23" viewBox="0 0 122 23" fill="none" xmlns="http://www.w3.org/2000/svg">
<path d="M0.056 22V20.628H0.476C0.830667 20.628 1.12933 20.572 1.372 20.46C1.61467 20.348 1.83867 20.1427 2.044 19.844C2.24933 19.5453 2.464 19.1067 2.688 18.528L8.82 2.008H12.012L18.06 18.808C18.228 19.2933 18.4053 19.6667 18.592 19.928C18.7973 20.1893 19.0213 20.376 19.264 20.488C19.5253 20.5813 19.8147 20.628 20.132 20.628H20.58V22H11.928V20.628H12.852C13.2253 20.628 13.5427 20.5347 13.804 20.348C14.084 20.1613 14.224 19.8627 14.224 19.452C14.224 19.3213 14.2053 19.1907 14.168 19.06C14.1493 18.9107 14.1213 18.78 14.084 18.668C14.0653 18.5373 14.028 18.416 13.972 18.304L12.964 15.364H5.936L5.04 17.996C4.984 18.1453 4.928 18.304 4.872 18.472C4.83467 18.64 4.79733 18.808 4.76 18.976C4.74133 19.144 4.732 19.2933 4.732 19.424C4.732 19.8347 4.872 20.1427 5.152 20.348C5.432 20.5347 5.78667 20.628 6.216 20.628H7.168V22H0.056ZM6.496 13.796H12.404L10.836 9.064C10.6867 8.59733 10.528 8.112 10.36 7.608C10.2107 7.104 10.0613 6.60933 9.912 6.124C9.78133 5.63867 9.66 5.18133 9.548 4.752C9.47333 5.05067 9.38 5.368 9.268 5.704C9.17467 6.04 9.072 6.38533 8.96 6.74C8.86667 7.09467 8.75467 7.45867 8.624 7.832C8.512 8.18667 8.39067 8.54133 8.26 8.896L6.496 13.796ZM21.2338 22V20.628H21.3458C21.7752 20.628 22.1578 20.5813 22.4938 20.488C22.8298 20.3947 23.0912 20.208 23.2778 19.928C23.4832 19.648 23.5858 19.228 23.5858 18.668V10.212C23.5858 9.67067 23.4925 9.26933 23.3058 9.008C23.1192 8.74667 22.8672 8.57867 22.5498 8.504C22.2512 8.41067 21.8965 8.364 21.4858 8.364H21.3738V6.992H26.7498L27.1138 9.092H27.2538C27.6272 8.38267 28.0285 7.86 28.4578 7.524C28.9058 7.16933 29.3818 6.936 29.8858 6.824C30.4085 6.712 30.9685 6.656 31.5658 6.656C33.0218 6.656 34.1605 7.08533 34.9818 7.944C35.8032 8.80267 36.2138 10.184 36.2138 12.088V18.64C36.2138 19.2187 36.2885 19.648 36.4378 19.928C36.6058 20.208 36.8298 20.3947 37.1098 20.488C37.4085 20.5813 37.7632 20.628 38.1738 20.628H38.2858V22H32.5738V12.62C32.5738 11.4067 32.3778 10.4733 31.9858 9.82C31.6125 9.148 30.9592 8.812 30.0258 8.812C29.3165 8.812 28.7565 9.01733 28.3458 9.428C27.9538 9.83867 27.6645 10.38 27.4778 11.052C27.3098 11.724 27.2258 12.452 27.2258 13.236V18.78C27.2258 19.3213 27.3098 19.7227 27.4778 19.984C27.6645 20.2453 27.9165 20.4227 28.2338 20.516C28.5512 20.5907 28.9152 20.628 29.3258 20.628H29.4378V22H21.2338ZM39.6909 22V20.628H39.8029C40.2322 20.628 40.6149 20.5813 40.9509 20.488C41.2869 20.3947 41.5482 20.208 41.7349 19.928C41.9402 19.648 42.0429 19.228 42.0429 18.668V10.212C42.0429 9.67067 41.9495 9.26933 41.7629 9.008C41.5762 8.74667 41.3242 8.57867 41.0069 8.504C40.7082 8.41067 40.3535 8.364 39.9429 8.364H39.8309V6.992H45.2069L45.5709 9.092H45.7109C46.0842 8.38267 46.4855 7.86 46.9149 7.524C47.3629 7.16933 47.8389 6.936 48.3429 6.824C48.8655 6.712 49.4255 6.656 50.0229 6.656C51.4789 6.656 52.6175 7.08533 53.4389 7.944C54.2602 8.80267 54.6709 10.184 54.6709 12.088V18.64C54.6709 19.2187 54.7455 19.648 54.8949 19.928C55.0629 20.208 55.2869 20.3947 55.5669 20.488C55.8655 20.5813 56.2202 20.628 56.6309 20.628H56.7429V22H51.0309V12.62C51.0309 11.4067 50.8349 10.4733 50.4429 9.82C50.0695 9.148 49.4162 8.812 48.4829 8.812C47.7735 8.812 47.2135 9.01733 46.8029 9.428C46.4109 9.83867 46.1215 10.38 45.9349 11.052C45.7669 11.724 45.6829 12.452 45.6829 13.236V18.78C45.6829 19.3213 45.7669 19.7227 45.9349 19.984C46.1215 20.2453 46.3735 20.4227 46.6909 20.516C47.0082 20.5907 47.3722 20.628 47.7829 20.628H47.8949V22H39.6909ZM65.8479 22.28C63.7012 22.28 62.0026 21.636 60.7519 20.348C59.5199 19.06 58.9039 17.0907 58.9039 14.44C58.9039 11.8267 59.4919 9.876 60.6679 8.588C61.8626 7.3 63.6172 6.656 65.9319 6.656C68.0972 6.656 69.7959 7.3 71.0279 8.588C72.2599 9.876 72.8759 11.8267 72.8759 14.44C72.8759 17.0907 72.2786 19.06 71.0839 20.348C69.9079 21.636 68.1626 22.28 65.8479 22.28ZM65.9039 20.628C66.7066 20.628 67.3412 20.404 67.8079 19.956C68.2932 19.4893 68.6386 18.7893 68.8439 17.856C69.0492 16.9227 69.1519 15.784 69.1519 14.44C69.1519 13.0773 69.0399 11.948 68.8159 11.052C68.6106 10.156 68.2652 9.484 67.7799 9.036C67.3132 8.56933 66.6786 8.336 65.8759 8.336C65.0919 8.336 64.4572 8.56933 63.9719 9.036C63.4866 9.484 63.1412 10.156 62.9359 11.052C62.7306 11.948 62.6279 13.0773 62.6279 14.44C62.6279 15.8027 62.7306 16.9413 62.9359 17.856C63.1599 18.7707 63.5052 19.4613 63.9719 19.928C64.4572 20.3947 65.1012 20.628 65.9039 20.628ZM74.9096 22V20.628H75.0216C75.451 20.628 75.8336 20.5813 76.1696 20.488C76.5056 20.3947 76.767 20.208 76.9536 19.928C77.159 19.648 77.2616 19.228 77.2616 18.668V10.212C77.2616 9.67067 77.1683 9.26933 76.9816 9.008C76.795 8.74667 76.543 8.57867 76.2256 8.504C75.927 8.41067 75.5723 8.364 75.1616 8.364H75.0496V6.992H80.4256L80.7896 9.092H80.9296C81.303 8.38267 81.7043 7.86 82.1336 7.524C82.5816 7.16933 83.0576 6.936 83.5616 6.824C84.0843 6.712 84.6443 6.656 85.2416 6.656C86.6976 6.656 87.8363 7.08533 88.6576 7.944C89.479 8.80267 89.8896 10.184 89.8896 12.088V18.64C89.8896 19.2187 89.9643 19.648 90.1136 19.928C90.2816 20.208 90.5056 20.3947 90.7856 20.488C91.0843 20.5813 91.439 20.628 91.8496 20.628H91.9616V22H86.2496V12.62C86.2496 11.4067 86.0536 10.4733 85.6616 9.82C85.2883 9.148 84.635 8.812 83.7016 8.812C82.9923 8.812 82.4323 9.01733 82.0216 9.428C81.6296 9.83867 81.3403 10.38 81.1536 11.052C80.9856 11.724 80.9016 12.452 80.9016 13.236V18.78C80.9016 19.3213 80.9856 19.7227 81.1536 19.984C81.3403 20.2453 81.5923 20.4227 81.9096 20.516C82.227 20.5907 82.591 20.628 83.0016 20.628H83.1136V22H74.9096ZM100.843 22.28C99.536 22.28 98.3787 22.028 97.3707 21.524C96.3627 21.02 95.5693 20.208 94.9907 19.088C94.412 17.9493 94.1227 16.4373 94.1227 14.552C94.1227 12.5547 94.412 10.9867 94.9907 9.848C95.588 8.69067 96.3813 7.86933 97.3707 7.384C98.3787 6.89867 99.508 6.656 100.759 6.656C101.804 6.656 102.719 6.77733 103.503 7.02C104.305 7.26267 104.931 7.59867 105.379 8.028C105.827 8.45733 106.051 8.97067 106.051 9.568C106.051 9.97867 105.948 10.352 105.743 10.688C105.556 11.0053 105.229 11.2573 104.763 11.444C104.296 11.6307 103.661 11.724 102.859 11.724C102.859 11.0893 102.793 10.5107 102.663 9.988C102.551 9.46533 102.345 9.04533 102.047 8.728C101.767 8.41067 101.356 8.252 100.815 8.252C100.217 8.252 99.6853 8.43867 99.2187 8.812C98.7707 9.16667 98.4253 9.80133 98.1827 10.716C97.94 11.6307 97.8187 12.9 97.8187 14.524C97.8187 15.812 97.9493 16.8853 98.2107 17.744C98.472 18.584 98.864 19.2187 99.3867 19.648C99.928 20.0773 100.637 20.292 101.515 20.292C102.131 20.292 102.691 20.1987 103.195 20.012C103.717 19.8253 104.165 19.5733 104.539 19.256C104.931 18.92 105.229 18.5467 105.435 18.136C105.621 18.2667 105.761 18.4347 105.855 18.64C105.967 18.8453 106.023 19.0787 106.023 19.34C106.023 19.8067 105.836 20.264 105.463 20.712C105.089 21.16 104.52 21.5333 103.755 21.832C103.008 22.1307 102.037 22.28 100.843 22.28ZM115.477 22.28C113.237 22.28 111.511 21.608 110.297 20.264C109.103 18.9013 108.505 17.0067 108.505 14.58C108.505 11.9667 109.084 9.99733 110.241 8.672C111.417 7.328 113.06 6.656 115.169 6.656C117.129 6.656 118.66 7.22533 119.761 8.364C120.881 9.484 121.441 11.1547 121.441 13.376V14.748H112.201C112.239 16.0547 112.407 17.1187 112.705 17.94C113.023 18.7427 113.461 19.34 114.021 19.732C114.6 20.124 115.3 20.32 116.121 20.32C116.775 20.32 117.353 20.2267 117.857 20.04C118.38 19.8347 118.828 19.5733 119.201 19.256C119.575 18.92 119.873 18.556 120.097 18.164C120.303 18.2573 120.461 18.416 120.573 18.64C120.704 18.8453 120.769 19.088 120.769 19.368C120.769 19.8347 120.573 20.292 120.181 20.74C119.808 21.188 119.229 21.5613 118.445 21.86C117.68 22.14 116.691 22.28 115.477 22.28ZM117.717 13.068C117.717 12.116 117.633 11.2853 117.465 10.576C117.297 9.86667 117.027 9.32533 116.653 8.952C116.299 8.56 115.813 8.364 115.197 8.364C114.6 8.364 114.087 8.54133 113.657 8.896C113.247 9.25067 112.92 9.78267 112.677 10.492C112.453 11.1827 112.313 12.0413 112.257 13.068H117.717ZM113.573 4.668C113.853 4.31333 114.152 3.89333 114.469 3.408C114.805 2.92267 115.123 2.428 115.421 1.924C115.739 1.42 115.991 0.962666 116.177 0.551999H120.041V0.831999C119.873 1.07467 119.603 1.38267 119.229 1.756C118.856 2.12933 118.427 2.52133 117.941 2.932C117.475 3.34267 116.999 3.73467 116.513 4.108C116.028 4.46267 115.58 4.77067 115.169 5.032H113.573V4.668Z" fill="black"/>
</svg>
