<svg xmlns="http://www.w3.org/2000/svg"><defs><style>.icon { display: none; }.icon:target { display: inline; }</style></defs><svg viewBox="0 0 18 18"><g id="category" class="icon">
<path fill-rule="evenodd" clip-rule="evenodd" d="M3 2C2.44772 2 2 2.44772 2 3V5C2 5.55228 2.44772 6 3 6H5C5.55228 6 6 5.55228 6 5V3C6 2.44772 5.55228 2 5 2H3ZM0 3C0 1.34315 1.34315 0 3 0H5C6.65685 0 8 1.34315 8 3V5C8 6.65685 6.65685 8 5 8H3C1.34315 8 0 6.65685 0 5V3ZM10 3C10 1.34315 11.3431 0 13 0H15C16.6569 0 18 1.34315 18 3V5C18 6.65685 16.6569 8 15 8H13C11.3431 8 10 6.65685 10 5V3ZM13 2C12.4477 2 12 2.44772 12 3V5C12 5.55228 12.4477 6 13 6H15C15.5523 6 16 5.55228 16 5V3C16 2.44772 15.5523 2 15 2H13ZM0 13C0 11.3431 1.34315 10 3 10H5C6.65685 10 8 11.3431 8 13V15C8 16.6569 6.65685 18 5 18H3C1.34315 18 0 16.6569 0 15V13ZM3 12C2.44772 12 2 12.4477 2 13V15C2 15.5523 2.44772 16 3 16H5C5.55228 16 6 15.5523 6 15V13C6 12.4477 5.55228 12 5 12H3ZM13 12C12.4477 12 12 12.4477 12 13V15C12 15.5523 12.4477 16 13 16H15C15.5523 16 16 15.5523 16 15V13C16 12.4477 15.5523 12 15 12H13ZM10 13C10 11.3431 11.3431 10 13 10H15C16.6569 10 18 11.3431 18 13V15C18 16.6569 16.6569 18 15 18H13C11.3431 18 10 16.6569 10 15V13Z" fill="#0F0F0F"/>
</g></svg><svg viewBox="0 0 15.3206415 15.662999"><g id="check" class="icon">
<path d="M7.50173 0.560558C7.76692 0.262214 8.23308 0.262215 8.49827 0.560559L9.64404 1.84955C9.8043 2.02984 10.0495 2.1095 10.2851 2.05784L11.9697 1.68849C12.3596 1.603 12.7367 1.877 12.7759 2.27424L12.9452 3.99052C12.9689 4.23058 13.1204 4.43913 13.3414 4.53583L14.9214 5.2272C15.287 5.38722 15.4311 5.83056 15.2293 6.17497L14.3575 7.66298C14.2355 7.87111 14.2355 8.12889 14.3575 8.33702L15.2293 9.82503C15.4311 10.1694 15.287 10.6128 14.9214 10.7728L13.3414 11.4642C13.1204 11.5609 12.9689 11.7694 12.9452 12.0095L12.7759 13.7258C12.7367 14.123 12.3596 14.397 11.9697 14.3115L10.2851 13.9422C10.0495 13.8905 9.8043 13.9702 9.64404 14.1505L8.49827 15.4394C8.23308 15.7378 7.76692 15.7378 7.50173 15.4394L6.35596 14.1505C6.1957 13.9702 5.95054 13.8905 5.71491 13.9422L4.03032 14.3115C3.64041 14.397 3.26328 14.123 3.22409 13.7258L3.0548 12.0095C3.03112 11.7694 2.8796 11.5609 2.65861 11.4642L1.07865 10.7728C0.712954 10.6128 0.568903 10.1694 0.770696 9.82503L1.64254 8.33702C1.76448 8.12889 1.76448 7.87111 1.64254 7.66298L0.770696 6.17497C0.568903 5.83056 0.712954 5.38722 1.07865 5.2272L2.65861 4.53583C2.8796 4.43913 3.03112 4.23058 3.0548 3.99052L3.22409 2.27424C3.26328 1.877 3.64041 1.603 4.03032 1.68849L5.71491 2.05784C5.95054 2.1095 6.1957 2.02984 6.35596 1.84955L7.50173 0.560558Z" fill="#337566"/>
<path d="M4.83337 8.10526L6.76195 10L10.8334 6" stroke="#F5F5F5" stroke-linecap="round"/>
</g></svg><svg viewBox="0 0 22.250666 15"><g id="eye" class="icon">
<path fill-rule="evenodd" clip-rule="evenodd" d="M11.25 0C6.25 0 1.98 3.11 0.25 7.5C1.98 11.89 6.25 15 11.25 15C16.25 15 20.52 11.89 22.25 7.5C20.52 3.11 16.25 0 11.25 0ZM11.25 12.5C8.49 12.5 6.25 10.26 6.25 7.5C6.25 4.74 8.49 2.5 11.25 2.5C14.01 2.5 16.25 4.74 16.25 7.5C16.25 10.26 14.01 12.5 11.25 12.5ZM11.25 4.5C9.59 4.5 8.25 5.84 8.25 7.5C8.25 9.16 9.59 10.5 11.25 10.5C12.91 10.5 14.25 9.16 14.25 7.5C14.25 5.84 12.91 4.5 11.25 4.5Z" fill="#F5F5F5"/>
</g></svg><svg viewBox="0 0 8 11"><g id="geo" class="icon">
<path d="M4 3.86164e-08C2.93914 3.86164e-08 1.92178 0.413724 1.17165 1.15049C0.421507 1.88725 0 2.88648 0 3.92842C0 7.07112 4 11 4 11C4 11 8 7.07112 8 3.92842C8.00007 3.41248 7.89666 2.90226 7.69567 2.42559C7.49468 1.94891 7.20007 1.51531 6.82863 1.15049C6.45718 0.785665 6.01599 0.49604 5.53066 0.298633C5.04533 0.101225 4.5253 -7.22064e-05 4 3.86164e-08ZM4 5.5C3.68362 5.5 3.37443 5.40836 3.11135 5.23574C2.84828 5.06313 2.64324 4.81704 2.52211 4.52998C2.40099 4.24292 2.36915 3.92705 2.43079 3.62227C2.49243 3.31748 2.64464 3.03748 2.86828 2.81768C3.09191 2.59787 3.37693 2.44874 3.6872 2.38799C3.99747 2.32723 4.31903 2.35731 4.61139 2.47607C4.90375 2.59484 5.15376 2.79682 5.32969 3.05508C5.50562 3.31334 5.59961 3.61661 5.59984 3.92734C5.59991 4.13377 5.55852 4.33817 5.47816 4.52891C5.3978 4.71965 5.28001 4.89314 5.13145 5.03916C4.98289 5.18518 4.80663 5.30063 4.61248 5.37969C4.41834 5.45875 4.21017 5.49993 4 5.5Z" fill="#0F0F0F"/>
</g></svg><svg viewBox="0 0 16 16"><g id="ru" class="icon">
<rect width="16" height="5.33333" fill="white"/>
<rect y="5.33334" width="16" height="5.33333" fill="#0945E0"/>
<rect y="10.6667" width="16" height="5.33333" fill="#DB0606"/>
</g></svg><svg viewBox="0 0 15.3206415 15.662999"><g id="star" class="icon">
<path d="M7.50173 0.560558C7.76692 0.262214 8.23308 0.262215 8.49827 0.560559L9.64404 1.84955C9.8043 2.02984 10.0495 2.1095 10.2851 2.05784L11.9697 1.68849C12.3596 1.603 12.7367 1.877 12.7759 2.27424L12.9452 3.99052C12.9689 4.23058 13.1204 4.43913 13.3414 4.53583L14.9214 5.2272C15.287 5.38722 15.4311 5.83056 15.2293 6.17497L14.3575 7.66298C14.2355 7.87111 14.2355 8.12889 14.3575 8.33702L15.2293 9.82503C15.4311 10.1694 15.287 10.6128 14.9214 10.7728L13.3414 11.4642C13.1204 11.5609 12.9689 11.7694 12.9452 12.0095L12.7759 13.7258C12.7367 14.123 12.3596 14.397 11.9697 14.3115L10.2851 13.9422C10.0495 13.8905 9.8043 13.9702 9.64404 14.1505L8.49827 15.4394C8.23308 15.7378 7.76692 15.7378 7.50173 15.4394L6.35596 14.1505C6.1957 13.9702 5.95054 13.8905 5.71491 13.9422L4.03032 14.3115C3.64041 14.397 3.26328 14.123 3.22409 13.7258L3.0548 12.0095C3.03112 11.7694 2.8796 11.5609 2.65861 11.4642L1.07865 10.7728C0.712954 10.6128 0.568903 10.1694 0.770696 9.82503L1.64254 8.33702C1.76448 8.12889 1.76448 7.87111 1.64254 7.66298L0.770696 6.17497C0.568903 5.83056 0.712954 5.38722 1.07865 5.2272L2.65861 4.53583C2.8796 4.43913 3.03112 4.23058 3.0548 3.99052L3.22409 2.27424C3.26328 1.877 3.64041 1.603 4.03032 1.68849L5.71491 2.05784C5.95054 2.1095 6.1957 2.02984 6.35596 1.84955L7.50173 0.560558Z" fill="#337566"/>
<path d="M4.83334 8.10526L6.76191 10L10.8333 6" stroke="#F5F5F5" stroke-linecap="round"/>
</g></svg><svg viewBox="0 0 18 19"><g id="bag" class="icon">
<path fill-rule="evenodd" clip-rule="evenodd" d="M6 5C6 3.34315 7.34315 2 9 2C10.6569 2 12 3.34315 12 5H6ZM4 7C4 7.55228 4.44772 8 5 8C5.55228 8 6 7.55228 6 7H12C12 7.55228 12.4477 8 13 8C13.5523 8 14 7.55228 14 7H16V15C16 16.1046 15.1046 17 14 17H4C2.89543 17 2 16.1046 2 15V7H4ZM4 5C4 2.23858 6.23858 0 9 0C11.7614 0 14 2.23858 14 5H16C17.1046 5 18 5.89543 18 7V15C18 17.2091 16.2091 19 14 19H4C1.79086 19 0 17.2091 0 15V7C0 5.89543 0.89543 5 2 5H4Z" fill="#0F0F0F"/>
</g></svg><svg viewBox="0 0 18.250666 20"><g id="calendar" class="icon">
<path fill-rule="evenodd" clip-rule="evenodd" d="M16.25 2H15.25V1C15.25 0.45 14.8 0 14.25 0C13.7 0 13.25 0.45 13.25 1V2H5.25V1C5.25 0.45 4.8 0 4.25 0C3.7 0 3.25 0.45 3.25 1V2H2.25C1.14 2 0.25 2.9 0.25 4V18C0.25 19.1 1.14 20 2.25 20H16.25C17.35 20 18.25 19.1 18.25 18V4C18.25 2.9 17.35 2 16.25 2ZM15.25 18H3.25C2.7 18 2.25 17.55 2.25 17V7H16.25V17C16.25 17.55 15.8 18 15.25 18Z" fill="#F5F5F5"/>
</g></svg></svg>