<svg width="23" height="15" viewBox="0 0 23 15" fill="none" xmlns="http://www.w3.org/2000/svg">
<path fill-rule="evenodd" clip-rule="evenodd" d="M11.25 0C6.25 0 1.98 3.11 0.25 7.5C1.98 11.89 6.25 15 11.25 15C16.25 15 20.52 11.89 22.25 7.5C20.52 3.11 16.25 0 11.25 0ZM11.25 12.5C8.49 12.5 6.25 10.26 6.25 7.5C6.25 4.74 8.49 2.5 11.25 2.5C14.01 2.5 16.25 4.74 16.25 7.5C16.25 10.26 14.01 12.5 11.25 12.5ZM11.25 4.5C9.59 4.5 8.25 5.84 8.25 7.5C8.25 9.16 9.59 10.5 11.25 10.5C12.91 10.5 14.25 9.16 14.25 7.5C14.25 5.84 12.91 4.5 11.25 4.5Z" fill="#F5F5F5"/>
</svg>
